<svg xmlns="http://www.w3.org/2000/svg" viewBox="0 0 64 64" width="100%" height="100%">
  <path d="M32 4 L8 12 V32 C8 46 18 56 32 60 C46 56 56 46 56 32 V12 Z" fill="none" stroke="#145A8D" stroke-width="6" stroke-linejoin="round"/>

  <path d="M24 30 V22 A8 8 0 0 1 40 22 V30" fill="none" stroke="#2980B9" stroke-width="5"/>

  <path d="M18 32 C18 29.8 19.8 28 22 28 H32 V48 H22 C19.8 48 18 46.2 18 44 Z" fill="#2980B9"/>

  <path d="M32 28 H42 C44.2 28 46 29.8 46 32 V44 C46 46.2 44.2 48 42 48 H32 Z" fill="#1F618D"/>

  <path d="M25 38 L30 43 L40 33" fill="none" stroke="#82E0AA" stroke-width="4" stroke-linecap="round" stroke-linejoin="round"/>
</svg>
